<svg width="48" height="48" viewBox="0 0 48 48" fill="none" xmlns="http://www.w3.org/2000/svg">
<rect width="48" height="48" rx="24" fill="#1877F2"/>
<circle cx="24" cy="24" r="24" fill="#1877F2"/>
<g clip-path="url(#clip0_208_1020)">
<path d="M28.4786 17.7476L25.029 11.9986L20.121 11.9989L19.8374 12.0009C19.4648 12.0057 19.114 12.021 18.7825 12.0467L21.8231 17.7476H28.4786ZM16.9567 12.3423C15.8513 12.6306 14.8431 13.209 14.0362 14.0177C13.0279 15.0266 12.374 16.3353 12.1726 17.7473L19.8401 17.7476L16.9567 12.3423ZM35.8279 17.7476C35.6304 16.3432 34.9828 15.0407 33.9822 14.0356C32.5125 12.6146 30.8828 11.9989 27.8795 11.9989L27.07 11.9985L30.5195 17.7475L35.8279 17.7476ZM35.9989 19.9078C35.9975 19.7682 35.9947 19.6314 35.9905 19.4976L12.0095 19.4972L12.0042 19.7003C12.0014 19.8372 12 19.977 12 20.1199V27.8804L12.0012 28.1088C12.0321 30.967 12.6518 32.5511 14.0182 33.9651C15.4876 35.3856 17.1175 36.0013 20.1211 36.0013H27.8796L28.1079 36.0001C30.966 35.9694 32.5494 35.3499 33.9642 33.9833C35.3844 32.5143 36 30.8838 36 27.8804V20.1199L35.9989 19.9078ZM27.9179 28.0061L22.3159 31.2797L22.2551 31.3121C22.1217 31.3765 21.9742 31.406 21.8263 31.3979C21.6784 31.3897 21.5349 31.3441 21.4095 31.2653C21.284 31.1866 21.1806 31.0773 21.1089 30.9476C21.0372 30.818 20.9995 30.6723 20.9995 30.5241V23.9771L21.0021 23.9081C21.0138 23.7605 21.0628 23.6182 21.1445 23.4946C21.2262 23.371 21.3379 23.2702 21.4692 23.2016C21.6005 23.133 21.7471 23.0989 21.8952 23.1024C22.0432 23.1059 22.188 23.1469 22.3159 23.2216L27.9179 26.4952L27.9845 26.538C28.1035 26.6228 28.1993 26.7361 28.2632 26.8675C28.3272 26.9989 28.3572 27.1442 28.3506 27.2901C28.344 27.4361 28.3009 27.5781 28.2253 27.7032C28.1498 27.8282 28.0441 27.9324 27.9179 28.0061Z" fill="white"/>
</g>
<defs>
<clipPath id="clip0_208_1020">
<rect width="24" height="24" fill="white" transform="translate(12 12)"/>
</clipPath>
</defs>
</svg>
