<?xml version="1.0" encoding="UTF-8"?>
<svg width="28px" height="28px" viewBox="0 0 28 28" version="1.1" xmlns="http://www.w3.org/2000/svg" xmlns:xlink="http://www.w3.org/1999/xlink">
    <title>Group</title>
    <g id="Explration-/-Icone-Reels" stroke="none" stroke-width="1" fill="none" fill-rule="evenodd">
        <g id="Reels---01" transform="translate(-628.000000, -132.000000)">
            <g id="Group" transform="translate(628.000000, 132.000000)">
                <circle id="Oval" fill="#CCCDCE" cx="14" cy="14" r="14"></circle>
                <g id="instagram-reels" transform="translate(5.000000, 5.000000)" fill="#FFFFFF" fill-rule="nonzero">
                    <path d="M5.17864745,0 L12.8213525,0 C14.2434911,0 15.5374161,0.580078125 16.4761749,1.51171875 C17.4164074,2.44482422 18,3.73242188 18,5.14746094 L18,12.8540039 C18,14.2661133 17.4164074,15.5522461 16.4791223,16.4853516 L16.4761749,16.4882812 C15.5359424,17.4213867 14.2420174,18 12.8228263,18 L5.17864745,18 C3.75503521,18 2.45963648,17.4199219 1.52087768,16.4882812 L1.48550843,16.4487305 C0.568855412,15.5200195 0,14.2485352 0,12.8525391 L0,5.14746094 C0,3.73095703 0.58211888,2.44482422 1.52087768,1.51171875 C2.45963648,0.578613281 3.75356149,0 5.17864745,0 L5.17864745,0 Z M13.4859997,4.54394531 L13.4963157,4.56005859 L16.6795481,4.56005859 C16.5513345,3.72802734 16.1519568,2.98095703 15.5772065,2.40820312 C14.8698215,1.70507813 13.8942197,1.26855469 12.8213525,1.26855469 L11.5141641,1.26855469 L13.4859997,4.54394531 L13.4859997,4.54394531 Z M12.0137547,4.56005859 L10.0316031,1.26855469 L5.68413296,1.26855469 L7.68986409,4.56005859 L12.0137547,4.56005859 L12.0137547,4.56005859 Z M6.20582938,4.56005859 L4.26641559,1.37548828 C3.5575569,1.54541016 2.92238415,1.91015625 2.42279352,2.40820313 C1.84804323,2.97949219 1.45013918,3.72802734 1.32045194,4.56005859 L6.20582938,4.56005859 L6.20582938,4.56005859 Z M16.7237596,5.82861328 L1.27624038,5.82861328 L1.27624038,12.8540039 C1.27624038,13.9042969 1.70214508,14.8608398 2.3903717,15.5610352 L2.42279352,15.5917969 C3.13017848,16.2949219 4.10725397,16.7329102 5.17864745,16.7329102 L12.8213525,16.7329102 C13.8942197,16.7329102 14.8698215,16.2963867 15.5757328,15.5947266 L15.5786802,15.5917969 C16.2845915,14.8901367 16.7237596,13.9204102 16.7237596,12.8540039 L16.7237596,5.82861328 L16.7237596,5.82861328 Z M7.50859669,8.04931641 L11.4625839,10.6054688 C11.5259538,10.6464844 11.5834289,10.6992188 11.6291141,10.7636719 C11.8089078,11.0229492 11.7425905,11.3789063 11.4817423,11.5576172 L7.54396594,13.8676758 C7.44522679,13.9482422 7.31848698,13.996582 7.17848371,13.996582 C6.86016047,13.996582 6.6022597,13.7402344 6.6022597,13.4238281 L6.6022597,8.51806641 L6.60520714,8.51806641 C6.60520714,8.40527344 6.63910267,8.29101562 6.70836745,8.19140625 C6.89110856,7.93212891 7.2492222,7.86914062 7.50859669,8.04931641 L7.50859669,8.04931641 L7.50859669,8.04931641 Z" id="Shape"></path>
                </g>
            </g>
        </g>
    </g>
</svg>