<?xml version="1.0" encoding="UTF-8"?>
<svg width="28px" height="28px" viewBox="0 0 28 28" version="1.1" xmlns="http://www.w3.org/2000/svg" xmlns:xlink="http://www.w3.org/1999/xlink">
    <title>Instagram Reels</title>
    <defs>
        <linearGradient x1="50%" y1="0%" x2="50%" y2="100%" id="linearGradient-1">
            <stop stop-color="#E14B81" offset="0%"></stop>
            <stop stop-color="#F8BD58" offset="100%"></stop>
        </linearGradient>
        <linearGradient x1="74.5214717%" y1="31.9468732%" x2="50%" y2="75.0103396%" id="linearGradient-2">
            <stop stop-color="#DE3B76" offset="0%"></stop>
            <stop stop-color="#F39B0A" offset="100%"></stop>
        </linearGradient>
    </defs>
    <g id="Explration-/-Icone-Reels" stroke="none" stroke-width="1" fill="none" fill-rule="evenodd">
        <g id="Reels---02" transform="translate(-635.000000, -141.000000)">
            <g id="Group-4" transform="translate(635.000000, 141.000000)">
                <circle id="Oval" stroke="url(#linearGradient-1)" fill="#FFFFFF" cx="14" cy="14" r="13.5"></circle>
                <g id="instagram-reels" transform="translate(6.000000, 6.000000)" fill="url(#linearGradient-2)" fill-rule="nonzero">
                    <path d="M12.6464415,3.38884153 L12.6571265,3.40551293 L15.9542072,3.40551293 C15.8214081,2.54466231 15.4077466,1.77171545 14.8124404,1.17912286 C14.0797558,0.451643459 13.0692616,0 11.9580233,0 L10.6040832,0 L12.6464415,3.38884153 L12.6464415,3.38884153 Z M11.1215417,3.40551293 L9.06849838,0 L4.56554093,0 L6.64300706,3.40551293 L11.1215417,3.40551293 L11.1215417,3.40551293 Z M5.10589582,3.40551293 L3.09711887,0.110637492 C2.36290784,0.286445013 1.70501813,0.66382495 1.18755963,1.17912286 C0.592253387,1.77019987 0.180118298,2.54466231 0.0457927876,3.40551293 L5.10589582,3.40551293 L5.10589582,3.40551293 Z M16,4.71800701 L0,4.71800701 L0,11.9867387 C0,13.073411 0.441137188,14.0630861 1.15397825,14.7875343 L1.18755963,14.8193616 C1.92024423,15.546841 2.93226483,16 4.04197672,16 L11.9580233,16 C13.0692616,16 14.0797558,15.5483565 14.8109139,14.8223927 L14.8139668,14.8193616 C15.545125,14.0933977 16,13.0900824 16,11.9867387 L16,4.71800701 L16,4.71800701 Z M6.45525663,7.01562944 L10.5506583,9.66032017 C10.6162946,9.70275646 10.6758252,9.75731742 10.7231444,9.82400303 C10.9093684,10.0922611 10.8406793,10.4605475 10.5705018,10.6454485 L6.49189086,13.0355215 C6.3896203,13.1188785 6.25834764,13.1688927 6.11333715,13.1688927 C5.78362908,13.1688927 5.51650448,12.9036658 5.51650448,12.5763001 L5.51650448,7.50061571 L5.51955734,7.50061571 C5.51955734,7.38391589 5.55466514,7.26570048 5.62640717,7.1626409 C5.81568403,6.89438287 6.18660561,6.82921284 6.45525663,7.01562944 L6.45525663,7.01562944 L6.45525663,7.01562944 Z" id="Shape"></path>
                </g>
            </g>
        </g>
    </g>
</svg>