<svg width="12" height="12" viewBox="0 0 12 12" fill="none" xmlns="http://www.w3.org/2000/svg">
<g clip-path="url(#clip0_4_7740)">
<path d="M6 12C2.68636 12 0 9.31394 0 6.00019C0 2.68645 2.68636 0 6 0C9.31364 0 12 2.68645 12 6.00019C11.9996 9.31394 9.31364 12 6 12Z" fill="#C2C2C2"/>
<path d="M4.66145 4.01042C4.66145 4.3522 4.38403 4.62963 4.04265 4.62963C3.7005 4.62963 3.42346 4.3522 3.42346 4.01042C3.42346 3.66903 3.7005 3.3916 4.04265 3.3916C4.38403 3.3916 4.66145 3.66903 4.66145 4.01042ZM3.50861 8.53523H4.57669V5.09934H3.50861V8.53523ZM7.29503 5.0138C6.77563 5.0138 6.42732 5.29855 6.28475 5.56866H6.2705V5.09895H5.24635V8.53485H6.31327V6.83559C6.31327 6.38746 6.39842 5.95359 6.95403 5.95359C7.50155 5.95359 7.50887 6.46606 7.50887 6.86449V8.53562H8.57617V6.65063C8.57617 5.72548 8.37658 5.0138 7.29503 5.0138Z" fill="white"/>
</g>
<defs>
<clipPath id="clip0_4_7740">
<rect width="12" height="12" fill="white"/>
</clipPath>
</defs>
</svg>
