<svg width="29" height="28" fill="none" xmlns="http://www.w3.org/2000/svg"><rect x=".361" y=".278" width="27.667" height="27.667" rx="13.833" fill="#000"/><g clip-path="url(#a)" fill-rule="evenodd" clip-rule="evenodd"><path d="M12.391 12.151v-.719a5.558 5.558 0 0 0-.754-.055 5.6 5.6 0 0 0-5.592 5.593 5.59 5.59 0 0 0 2.388 4.579A5.57 5.57 0 0 1 6.93 17.74a5.598 5.598 0 0 1 5.46-5.59Z" fill="#26F5EF"/><path d="M12.523 20.295a2.555 2.555 0 0 0 2.55-2.459l.004-12.176h2.225a4.225 4.225 0 0 1-.072-.771h-3.038l-.005 12.177a2.555 2.555 0 0 1-2.55 2.458c-.412 0-.82-.1-1.184-.293a2.55 2.55 0 0 0 2.07 1.064Zm8.934-10.502v-.677a4.2 4.2 0 0 1-2.302-.684c.6.69 1.408 1.168 2.303 1.361" fill="#26F5EF"/><path d="M19.155 8.431a4.209 4.209 0 0 1-1.04-2.77h-.814a4.235 4.235 0 0 0 1.854 2.77Zm-7.518 5.985a2.557 2.557 0 0 0-2.554 2.554 2.556 2.556 0 0 0 1.369 2.26 2.538 2.538 0 0 1-.483-1.489 2.557 2.557 0 0 1 2.554-2.554c.263 0 .515.043.753.118v-3.102a5.574 5.574 0 0 0-.753-.055c-.045 0-.088.002-.132.003v2.383a2.517 2.517 0 0 0-.754-.119Z" fill="#FD2D55"/><path d="M21.457 9.793v2.361a7.227 7.227 0 0 1-4.227-1.359v6.175a5.599 5.599 0 0 1-5.592 5.592 5.56 5.56 0 0 1-3.205-1.013 5.58 5.58 0 0 0 4.09 1.784 5.599 5.599 0 0 0 5.593-5.592v-6.175a7.227 7.227 0 0 0 4.227 1.36v-3.04c-.304 0-.6-.032-.886-.093" fill="#FD2D55"/><path d="M17.23 16.97v-6.175a7.226 7.226 0 0 0 4.227 1.36V9.792a4.229 4.229 0 0 1-2.302-1.362 4.235 4.235 0 0 1-1.853-2.77h-2.225l-.005 12.176a2.555 2.555 0 0 1-2.549 2.458 2.55 2.55 0 0 1-2.07-1.065 2.556 2.556 0 0 1-1.37-2.26 2.557 2.557 0 0 1 2.555-2.554 2.5 2.5 0 0 1 .753.118V12.15a5.598 5.598 0 0 0-5.46 5.59c0 1.47.571 2.808 1.502 3.808a5.56 5.56 0 0 0 3.205 1.013 5.599 5.599 0 0 0 5.592-5.592Z" fill="#fff"/></g><defs><clipPath id="a"><path fill="#fff" transform="translate(4.972 4.889)" d="M0 0h18.444v18.444H0z"/></clipPath></defs></svg>