<svg width="12" height="12" viewBox="0 0 12 12" fill="none" xmlns="http://www.w3.org/2000/svg">
<rect width="12" height="12" rx="6" fill="#C2C2C2"/>
<path d="M8.03702 5.45235C7.91861 5.38539 7.80533 5.3133 7.6715 5.23607C7.80533 5.1537 7.92897 5.0816 8.04738 5.01465C8.59828 4.716 8.90207 4.1085 8.80934 3.49065C8.67543 2.47645 7.50668 1.88959 6.62117 2.39408C5.71502 2.91415 4.80887 3.42386 3.913 3.95926C3.2025 4.3866 3.0995 4.95291 3.21278 5.62223C3.28487 6.03929 3.56289 6.34814 3.92842 6.55928C4.05711 6.63138 4.18066 6.70347 4.31971 6.78584C4.16525 6.87848 4.02628 6.96085 3.87696 7.03808C3.21792 7.45515 2.99136 8.30975 3.36211 8.9997C3.7534 9.7257 4.65955 10.0037 5.38546 9.61242C6.16805 9.16966 6.95064 8.71655 7.7281 8.26352C7.91347 8.15537 8.10912 8.05759 8.27386 7.92368C9.10277 7.23373 8.97922 5.9827 8.03702 5.45235ZM5.27226 7.14109V4.89118L7.21847 6.01361L5.27226 7.14109Z" fill="white"/>
</svg>
