<svg width="30" height="30" fill="none" xmlns="http://www.w3.org/2000/svg"><path d="M15 29c7.732 0 14-6.268 14-14S22.732 1 15 1 1 7.268 1 15s6.268 14 14 14z" fill="#CBCBCB" stroke="#CECECE" stroke-width=".5"/><path fill-rule="evenodd" clip-rule="evenodd" d="M23.624 10.874c-.207-.738-.817-1.319-1.591-1.516C20.628 9 15 9 15 9s-5.629 0-7.032.358c-.775.197-1.385.778-1.592 1.516C6 12.21 6 15 6 15s0 2.79.376 4.126c.207.738.817 1.319 1.592 1.516C9.37 21 15 21 15 21s5.629 0 7.032-.358c.775-.197 1.385-.778 1.592-1.516C24 17.79 24 15 24 15s0-2.79-.376-4.126z" fill="#fff"/><path fill-rule="evenodd" clip-rule="evenodd" d="M13.2 17.571l4.677-2.57-4.677-2.572v5.142z" fill="#CACACA"/></svg>